<svg id="mermaidChart0" width="100%" xmlns="http://www.w3.org/2000/svg" height="100%" style="max-width:738.40625px;" viewBox="-50 -10 738.40625 1031"><style type="text/css" title="mermaid-svg-internal-css">/*  */
.actor { stroke: rgb(19, 84, 12); fill: rgb(205, 228, 152);}
text.actor { fill: rgb(0, 0, 0); stroke: none;}
.actor-line { stroke: grey;}
.messageLine0 { }
.messageLine0, .messageLine1 { stroke-width: 1.5; stroke: rgb(51, 51, 51);}
#arrowhead { fill: rgb(51, 51, 51);}
#crosshead path { fill: rgb(51, 51, 51) !important; stroke: rgb(51, 51, 51) !important;}
.messageText { fill: rgb(51, 51, 51); stroke: none;}
* { -webkit-tap-highlight-color: rgba(0, 0, 0, 0);}
*, ::after, ::before { box-sizing: border-box;}
/*  */
</style><g></g><g><line id="actor0" x1="75" y1="5" x2="75" y2="1020" class="actor-line" stroke-width="0.5px" stroke="#999"></line><rect x="0" y="0" fill="#eaeaea" stroke="#666" width="150" height="65" rx="3" ry="3" class="actor"></rect><text x="75" y="32.5" dominant-baseline="central" alignment-baseline="central" class="actor" style="text-anchor: middle;"><tspan x="75" dy="0">User</tspan></text></g><g><line id="actor1" x1="275" y1="5" x2="275" y2="1020" class="actor-line" stroke-width="0.5px" stroke="#999"></line><rect x="200" y="0" fill="#eaeaea" stroke="#666" width="150" height="65" rx="3" ry="3" class="actor"></rect><text x="275" y="32.5" dominant-baseline="central" alignment-baseline="central" class="actor" style="text-anchor: middle;"><tspan x="275" dy="0">Client</tspan></text></g><g><line id="actor2" x1="475" y1="5" x2="475" y2="1020" class="actor-line" stroke-width="0.5px" stroke="#999"></line><rect x="400" y="0" fill="#eaeaea" stroke="#666" width="150" height="65" rx="3" ry="3" class="actor"></rect><text x="475" y="32.5" dominant-baseline="central" alignment-baseline="central" class="actor" style="text-anchor: middle;"><tspan x="475" dy="0">Server</tspan></text></g><defs><marker id="arrowhead" refX="5" refY="2" markerWidth="6" markerHeight="4" orient="auto"><path d="M 0,0 V 4 L6,2 Z"></path></marker></defs><defs><marker id="crosshead" markerWidth="15" markerHeight="8" orient="auto" refX="16" refY="4"><path fill="black" stroke="#000000" stroke-width="1px" d="M 9,2 V 6 L16,4 Z" style="stroke-dasharray: 0, 0;"></path><path fill="none" stroke="#000000" stroke-width="1px" d="M 0,1 L 6,7 M 6,1 L 0,7" style="stroke-dasharray: 0, 0;"></path></marker></defs><g><rect x="70" y="67" fill="#f4f4f4" stroke="#666" width="10" height="268" rx="0" ry="0"></rect></g><g><text x="177.5" y="93" class="messageText" style="text-anchor: middle;">Register</text><line x1="80" y1="100" x2="275" y2="100" class="messageLine0" stroke-width="2" stroke="black" marker-end="url(#arrowhead)" style="fill: none;"></line></g><g><rect x="270" y="102" fill="#f4f4f4" stroke="#666" width="10" height="233" rx="0" ry="0"></rect></g><g><text x="280" y="128" class="messageText" style="text-anchor: middle;">Seal(principal, password)</text><path d="M 280,135 C 340,125 340,165 280,155" class="messageLine0" stroke-width="2" stroke="black" marker-end="url(#arrowhead)" style="fill: none;"></path></g><g><text x="377.5" y="193" class="messageText" style="text-anchor: middle;">Public key</text><line x1="280" y1="200" x2="475" y2="200" class="messageLine0" stroke-width="2" stroke="black" marker-end="url(#arrowhead)" style="fill: none;"></line></g><g><rect x="470" y="202" fill="#f4f4f4" stroke="#666" width="10" height="98" rx="0" ry="0"></rect></g><g><text x="480" y="228" class="messageText" style="text-anchor: middle;">Create user</text><path d="M 480,235 C 540,225 540,265 480,255" class="messageLine0" stroke-width="2" stroke="black" marker-end="url(#arrowhead)" style="fill: none;"></path></g><g><text x="375" y="293" class="messageText" style="text-anchor: middle;">Ok</text><line x1="470" y1="300" x2="280" y2="300" class="messageLine1" stroke-width="2" stroke="black" marker-end="url(#arrowhead)" style="stroke-dasharray: 3, 3; fill: none;"></line></g><g><text x="175" y="328" class="messageText" style="text-anchor: middle;">Ok</text><line x1="270" y1="335" x2="80" y2="335" class="messageLine1" stroke-width="2" stroke="black" marker-end="url(#arrowhead)" style="stroke-dasharray: 3, 3; fill: none;"></line></g><g><rect x="70" y="337" fill="#f4f4f4" stroke="#666" width="10" height="598" rx="0" ry="0"></rect></g><g><text x="177.5" y="363" class="messageText" style="text-anchor: middle;">Login</text><line x1="80" y1="370" x2="275" y2="370" class="messageLine0" stroke-width="2" stroke="black" marker-end="url(#arrowhead)" style="fill: none;"></line></g><g><rect x="270" y="372" fill="#f4f4f4" stroke="#666" width="10" height="563" rx="0" ry="0"></rect></g><g><text x="280" y="398" class="messageText" style="text-anchor: middle;">Seal(principal, password)</text><path d="M 280,405 C 340,395 340,435 280,425" class="messageLine0" stroke-width="2" stroke="black" marker-end="url(#arrowhead)" style="fill: none;"></path></g><g><text x="377.5" y="463" class="messageText" style="text-anchor: middle;">Get Challenge</text><line x1="280" y1="470" x2="475" y2="470" class="messageLine0" stroke-width="2" stroke="black" marker-end="url(#arrowhead)" style="fill: none;"></line></g><g><rect x="470" y="472" fill="#f4f4f4" stroke="#666" width="10" height="163" rx="0" ry="0"></rect></g><g><text x="480" y="498" class="messageText" style="text-anchor: middle;">Forge(principal)</text><path d="M 480,505 C 540,495 540,535 480,525" class="messageLine0" stroke-width="2" stroke="black" marker-end="url(#arrowhead)" style="fill: none;"></path></g><g><text x="480" y="563" class="messageText" style="text-anchor: middle;">Store SessionID and principal</text><path d="M 480,570 C 540,560 540,600 480,590" class="messageLine0" stroke-width="2" stroke="black" marker-end="url(#arrowhead)" style="fill: none;"></path></g><g><text x="375" y="628" class="messageText" style="text-anchor: middle;">Challenge</text><line x1="470" y1="635" x2="280" y2="635" class="messageLine1" stroke-width="2" stroke="black" marker-end="url(#arrowhead)" style="stroke-dasharray: 3, 3; fill: none;"></line></g><g><text x="280" y="663" class="messageText" style="text-anchor: middle;">Meld(principal, password, challenge)</text><path d="M 280,670 C 340,660 340,700 280,690" class="messageLine0" stroke-width="2" stroke="black" marker-end="url(#arrowhead)" style="fill: none;"></path></g><g><text x="377.5" y="728" class="messageText" style="text-anchor: middle;">Send Challenge response</text><line x1="280" y1="735" x2="475" y2="735" class="messageLine0" stroke-width="2" stroke="black" marker-end="url(#arrowhead)" style="fill: none;"></line></g><g><rect x="470" y="737" fill="#f4f4f4" stroke="#666" width="10" height="163" rx="0" ry="0"></rect></g><g><text x="480" y="763" class="messageText" style="text-anchor: middle;">Check challenge existence (principal, sessionID, expiration)</text><path d="M 480,770 C 540,760 540,800 480,790" class="messageLine0" stroke-width="2" stroke="black" marker-end="url(#arrowhead)" style="fill: none;"></path></g><g><text x="480" y="828" class="messageText" style="text-anchor: middle;">Check challenge signature</text><path d="M 480,835 C 540,825 540,865 480,855" class="messageLine0" stroke-width="2" stroke="black" marker-end="url(#arrowhead)" style="fill: none;"></path></g><g><text x="375" y="893" class="messageText" style="text-anchor: middle;">Ok</text><line x1="470" y1="900" x2="280" y2="900" class="messageLine1" stroke-width="2" stroke="black" marker-end="url(#arrowhead)" style="stroke-dasharray: 3, 3; fill: none;"></line></g><g><text x="175" y="928" class="messageText" style="text-anchor: middle;">Ok</text><line x1="270" y1="935" x2="80" y2="935" class="messageLine1" stroke-width="2" stroke="black" marker-end="url(#arrowhead)" style="stroke-dasharray: 3, 3; fill: none;"></line></g><g><rect x="0" y="955" fill="#eaeaea" stroke="#666" width="150" height="65" rx="3" ry="3" class="actor"></rect><text x="75" y="987.5" dominant-baseline="central" alignment-baseline="central" class="actor" style="text-anchor: middle;"><tspan x="75" dy="0">User</tspan></text></g><g><rect x="200" y="955" fill="#eaeaea" stroke="#666" width="150" height="65" rx="3" ry="3" class="actor"></rect><text x="275" y="987.5" dominant-baseline="central" alignment-baseline="central" class="actor" style="text-anchor: middle;"><tspan x="275" dy="0">Client</tspan></text></g><g><rect x="400" y="955" fill="#eaeaea" stroke="#666" width="150" height="65" rx="3" ry="3" class="actor"></rect><text x="475" y="987.5" dominant-baseline="central" alignment-baseline="central" class="actor" style="text-anchor: middle;"><tspan x="475" dy="0">Server</tspan></text></g></svg>